PathFileType	4	(X/Y/Z)	 s10c0103.trc
DataRate	CameraRate	NumFrames	NumMarkers	Units	OrigDataRate	OrigDataStartFrame	OrigNumFrames
200	200	7	50	mm	200	501	2000
Frame#	Time	racr			lacr			c7			jug			rlel			rdr			llel			ldr			s2			lic			ric			lasi			rasi			rpsi			lpsi			rgt			lgt			rth1			rth2			rth3			rth4			rlfc			rmfc			rsh1			rsh2			rsh3			rsh4			rlmal			rmmal			rcal			rtoe			rmt5			lth1			lth2			lth4			lth3			llfc			lmfc			llmal			lmmal			lcal			lmt5			lsh1			lsh2			lsh3			lsh4			ltoe			SBIKE			LBIKE			RBIKE			
		X1	Y1	Z1	X2	Y2	Z2	X3	Y3	Z3	X4	Y4	Z4	X5	Y5	Z5	X6	Y6	Z6	X7	Y7	Z7	X8	Y8	Z8	X9	Y9	Z9	X10	Y10	Z10	X11	Y11	Z11	X12	Y12	Z12	X13	Y13	Z13	X14	Y14	Z14	X15	Y15	Z15	X16	Y16	Z16	X17	Y17	Z17	X18	Y18	Z18	X19	Y19	Z19	X20	Y20	Z20	X21	Y21	Z21	X22	Y22	Z22	X23	Y23	Z23	X24	Y24	Z24	X25	Y25	Z25	X26	Y26	Z26	X27	Y27	Z27	X28	Y28	Z28	X29	Y29	Z29	X30	Y30	Z30	X31	Y31	Z31	X32	Y32	Z32	X33	Y33	Z33	X34	Y34	Z34	X35	Y35	Z35	X36	Y36	Z36	X37	Y37	Z37	X38	Y38	Z38	X39	Y39	Z39	X40	Y40	Z40	X41	Y41	Z41	X42	Y42	Z42	X43	Y43	Z43	X44	Y44	Z44	X45	Y45	Z45	X46	Y46	Z46	X47	Y47	Z47	X48	Y48	Z48	X49	Y49	Z49	X50	Y50	Z50	
501	2.5050	458.798057	1286.207344	-65.693365	429.982591	1297.167394	-354.797217	390.797808	1344.840465	-203.508954	394.237376	1196.008974	-209.330117	501.346727	1042.775773	48.609353	645.075390	877.701748	-9.055545	504.044546	1041.160854	-447.340888	663.327450	888.847638	-371.354749	-106.832935	1108.498746	-202.301640	53.999990	1150.729742	-348.585659	68.411953	1132.753109	-47.127994	92.854670	1065.251204	-318.017572	75.213450	1047.608474	-62.601289	-67.944829	1166.075631	-137.586984	-66.733481	1182.135871	-248.082302	-41.061544	1003.018966	-19.883741	-5.706200	1021.969149	-402.554169	15.157264	866.497425	2.883022	70.546792	797.759209	-9.241584	81.365555	714.190507	-24.233891	104.907152	814.103410	-11.264201	137.486459	624.098169	-42.093309	132.275842	613.904625	-159.724449	98.943155	516.832065	-15.764934	122.482699	431.408071	-26.119795	100.560631	347.964835	-32.774582	155.208693	434.634704	-46.583149	102.526748	251.548561	-48.303014	124.213152	261.526320	-126.552581	53.971549	250.460303	-98.953621	273.958221	145.675730	-85.634569	184.331965	149.173618	-27.953648	110.928352	975.856133	-406.544602	195.061466	982.694285	-386.154099	198.672741	1014.909264	-368.242976	275.996470	946.047024	-382.618660	377.705347	910.448657	-356.807586	370.963934	888.749056	-231.760117	124.603558	625.697105	-373.865030	134.259308	618.797247	-292.504341	59.577443	621.971528	-334.026222	181.546021	491.744973	-387.988200	296.278722	826.442229	-393.829248	262.426337	746.226437	-381.912005	190.769920	693.223668	-383.886984	284.418113	730.900055	-354.710466	261.582834	469.812040	-326.657156	-204.387751	832.629278	-224.051585	-78.283762	81.866539	-423.582026	-102.668702	80.528185	-24.423803	
502	2.5100	458.893882	1285.634017	-67.561632	429.194374	1295.972912	-356.417524	390.529740	1343.900484	-205.277121	393.884533	1195.053939	-210.756659	501.227433	1042.613957	47.673501	645.121770	877.446293	-8.975793	502.318342	1039.794343	-449.105435	662.950530	889.400785	-371.451913	-107.599821	1108.337359	-201.991273	52.966152	1151.164801	-348.179949	68.920399	1132.407167	-47.195595	92.046287	1065.626726	-318.111641	75.107952	1047.417299	-62.757425	-71.881556	1168.195735	-136.420915	-68.325816	1182.755398	-247.437845	-41.118697	1002.932158	-19.891594	-5.978585	1021.714839	-402.514292	15.081640	866.373405	2.841833	70.735831	797.818071	-9.183376	82.010361	714.331031	-24.277180	105.061154	814.307419	-10.995666	138.086509	624.224804	-41.728049	133.631845	614.676080	-159.204361	98.228127	517.209270	-15.607052	120.215841	431.547477	-26.188099	97.018209	348.504840	-33.111559	153.091562	434.307502	-46.554203	97.238951	252.177153	-48.671611	118.549965	261.543563	-126.935323	48.550349	251.146966	-99.627698	267.360754	144.169332	-85.794267	177.730703	148.790494	-28.364923	110.931596	976.263745	-406.281788	194.975613	983.217244	-385.710786	198.600317	1015.552594	-368.127357	275.849383	946.393871	-381.796286	377.545321	912.257118	-356.415351	371.128006	890.981978	-231.002963	127.442404	624.742361	-373.295794	136.545776	618.069482	-292.441800	61.814689	619.338953	-334.082830	187.576197	492.712525	-387.842200	297.205761	827.626217	-393.494526	264.284310	746.892427	-381.611487	193.260777	693.089239	-383.751421	286.263670	732.134828	-354.346483	268.314154	473.341533	-326.440466	-204.394023	832.610177	-224.066683	-78.273562	81.872330	-423.564311	-102.674001	80.531349	-24.431356	
503	2.5150	458.942328	1285.031952	-69.278246	428.466516	1294.652848	-358.001046	390.260788	1342.857700	-206.853953	393.589858	1193.997360	-211.967726	500.916215	1042.341857	46.834979	645.130151	877.297566	-8.974707	500.444259	1038.336171	-451.018907	662.587603	890.014238	-371.450186	-108.362287	1108.540135	-201.792382	51.666536	1151.494341	-347.571973	69.254257	1131.955847	-47.360557	91.048090	1066.090120	-318.298713	74.772348	1046.928689	-63.257197	-74.055907	1169.247650	-135.535462	-69.341388	1182.975797	-247.098537	-41.105020	1002.863756	-19.945700	-6.498968	1021.493123	-402.558134	15.232583	866.282323	2.738988	71.311985	798.019613	-9.226099	83.267528	714.615970	-24.337904	105.554592	814.691664	-10.838476	139.260279	624.588958	-41.316209	135.595649	615.540998	-158.514316	97.926119	517.879651	-15.395536	118.396592	431.953817	-26.166049	93.727458	349.453797	-33.313626	151.319593	434.240168	-46.604698	91.835372	252.903354	-49.072860	113.469762	262.177568	-127.337903	43.466912	252.666105	-99.803641	260.784669	143.030460	-86.148779	171.149408	148.720365	-28.663458	110.587089	976.470914	-406.058284	194.623347	983.452127	-385.425692	198.298256	1015.912303	-368.214056	275.345526	946.352360	-380.979194	377.201233	913.612158	-355.797397	370.953246	893.114148	-230.246219	129.961219	623.519333	-373.066925	138.795370	617.087659	-292.332263	63.845801	616.184390	-334.167565	193.415383	493.337508	-387.854567	297.615151	828.391322	-392.704308	265.773144	747.204970	-381.226853	195.437934	692.428731	-383.546515	287.748656	732.893208	-353.819200	274.784065	476.790690	-326.123265	-204.411491	832.604358	-224.064040	-78.258422	81.860827	-423.575270	-102.626224	80.540348	-24.397181	
504	2.5200	458.957079	1284.153253	-70.845391	427.839402	1293.199215	-359.507021	390.040596	1341.643590	-208.375058	393.267431	1192.769899	-213.162602	500.478389	1041.853598	46.066905	645.184504	877.198047	-8.984460	498.513778	1036.676213	-452.887716	662.169053	890.621298	-371.572280	-109.241195	1108.344008	-201.564068	50.304115	1151.878171	-347.075594	69.453296	1131.606082	-47.576960	89.923394	1066.555067	-318.658118	74.493711	1046.500771	-63.719438	-74.162417	1169.242705	-135.111762	-70.404105	1183.275057	-246.688881	-41.056590	1002.742927	-20.071789	-7.343754	1021.249456	-402.620388	15.616144	866.201367	2.540515	72.307000	798.483793	-9.413208	85.055485	715.156026	-24.460795	106.283603	815.290888	-10.940730	141.055435	625.141485	-40.852889	137.998715	616.499706	-157.802890	98.089278	519.001864	-15.152105	116.846969	432.569401	-26.072424	90.504885	350.624007	-33.492868	149.743299	434.081480	-46.653595	86.339491	253.986014	-49.252462	108.780851	262.715469	-127.466591	37.861254	253.921539	-100.463723	254.085043	142.176885	-86.389929	164.641085	148.956952	-29.061299	109.942979	976.368196	-405.908115	193.938500	983.457507	-385.234437	197.696491	1016.158158	-368.420156	274.648205	946.149115	-380.432395	376.567594	914.638958	-355.209884	370.532264	894.901558	-229.557837	132.260412	621.805990	-372.914037	141.034877	615.840007	-292.031383	65.871616	612.534516	-334.379819	199.483424	494.115467	-387.972453	297.718719	828.683887	-392.093215	266.853140	747.064613	-380.816375	197.201346	691.500919	-383.327898	288.792607	733.022364	-353.108530	281.181213	480.071471	-325.934020	-204.444214	832.599738	-224.065473	-78.201719	81.877976	-423.544961	-102.581970	80.555104	-24.354537	
505	2.5250	458.870269	1283.105179	-72.347337	427.157570	1291.558472	-360.923462	389.701717	1340.373177	-209.962607	392.695676	1191.484077	-214.420216	499.916642	1041.222512	45.322699	645.240444	877.130105	-8.952306	496.433886	1034.905380	-454.771975	661.650229	891.315400	-371.639733	-110.012768	1108.239555	-201.234550	48.829362	1152.375895	-346.761442	69.556139	1131.181154	-47.864053	88.662111	1067.107544	-319.177752	74.400833	1046.077799	-64.040281	-74.101485	1169.062932	-134.732525	-71.480726	1183.638201	-246.274617	-41.024338	1002.645139	-20.193707	-8.476400	1021.071802	-402.708919	16.263635	866.116464	2.232682	73.632961	798.889100	-9.803436	87.311875	715.784730	-24.692008	107.413425	816.123680	-11.079165	143.406641	625.817279	-40.346300	140.869184	617.345076	-157.090239	98.714173	520.020921	-14.623195	115.554545	433.346118	-25.988101	87.337869	352.022793	-33.552931	148.316933	434.304319	-46.687117	80.713950	255.216379	-49.533146	103.806419	263.548021	-127.562691	32.591604	255.611581	-100.368024	247.470014	141.850195	-86.591656	157.998598	149.513418	-29.472006	108.964887	975.886075	-405.767285	193.048632	983.074587	-385.190738	196.784299	1016.000468	-368.716394	273.664703	945.751564	-379.911806	375.790425	915.098860	-354.711786	369.663962	896.361981	-229.094297	134.589699	619.863311	-373.231426	143.157277	614.330722	-291.812073	67.629266	608.009075	-334.363869	205.318832	494.106643	-387.950913	297.534052	828.511830	-391.389126	267.574531	746.411385	-380.293306	198.564573	690.204384	-383.174980	289.569190	732.759390	-352.594540	287.460544	483.316324	-325.863495	-204.489960	832.586471	-224.076815	-78.179647	81.874919	-423.541853	-102.542292	80.566375	-24.316846	
506	2.5300	458.703859	1281.915559	-73.657963	426.464557	1289.748643	-362.297016	389.463933	1338.977409	-211.298614	391.999674	1190.068477	-215.373210	499.196360	1040.482670	44.681054	645.269310	877.054925	-8.913880	494.290953	1033.039747	-456.660371	661.126476	892.028112	-371.946851	-110.862421	1108.314251	-201.049662	47.207695	1152.878585	-346.480200	69.549349	1130.674120	-48.269462	87.300763	1067.660953	-320.003076	74.203562	1045.652109	-64.565227	-74.217889	1168.679875	-134.298265	-72.654550	1183.986243	-245.851923	-41.000566	1002.503431	-20.343652	-10.087744	1021.024855	-402.714793	17.315633	866.132782	2.192261	75.322211	799.479251	-10.292985	89.973785	716.544822	-24.867042	108.811591	817.414238	-11.185271	146.305245	626.643756	-39.759560	144.142833	618.383712	-156.312953	99.682653	521.421500	-14.068907	114.476512	434.356336	-25.812211	84.415993	353.525010	-33.492519	147.112456	434.440557	-46.801345	75.030633	256.584997	-49.652099	99.028380	264.745788	-127.614335	27.348962	257.742515	-100.354096	240.710682	141.736191	-86.970150	151.351717	150.231348	-29.838401	107.717797	975.087256	-405.651025	191.828293	982.393940	-385.262128	195.624887	1015.487972	-369.159908	272.383382	945.036238	-379.551223	374.574902	915.194314	-354.347125	368.539297	897.321621	-228.451436	136.339440	616.515691	-372.786561	145.220866	612.316241	-291.603137	69.601952	602.981051	-334.181092	211.058683	493.810449	-388.036275	296.993656	827.823881	-390.582498	267.930217	745.407901	-379.753506	199.616242	688.367262	-382.994749	290.011366	731.981067	-352.076443	293.590539	486.384244	-325.762287	-204.510110	832.585111	-224.082827	-78.157698	81.909854	-423.548924	-102.503907	80.595069	-24.302039	
507	2.5350	458.529777	1280.540406	-75.083086	425.833788	1287.810172	-363.641995	389.122695	1337.495322	-212.684276	391.268239	1188.573258	-216.510110	498.345499	1039.524577	44.029395	645.301824	876.981266	-8.833409	492.102197	1031.131108	-458.523420	660.657121	892.736342	-372.203601	-111.659130	1108.332473	-200.695550	45.512566	1153.355925	-346.359707	69.216370	1130.042551	-48.872589	85.864660	1068.117612	-321.007641	74.017802	1045.260070	-65.250351	-74.455790	1168.589416	-133.849280	-73.717156	1184.304931	-245.455746	-40.995613	1002.297745	-20.521776	-12.076507	1021.256104	-402.695733	18.334732	866.051767	1.739013	77.178293	800.079195	-10.892674	92.885788	717.355961	-25.100686	110.454355	818.436586	-11.742600	149.676923	627.598106	-39.158545	147.743979	619.378634	-155.531999	100.942344	522.683426	-13.437252	113.579151	435.589116	-25.567079	81.545511	355.514337	-33.385163	146.115079	435.007553	-46.795536	69.391020	258.364062	-49.867759	94.137657	266.219055	-127.679989	21.603006	260.242961	-101.852032	234.012626	141.773428	-87.263215	144.641115	151.269734	-30.283136	106.196239	974.301339	-405.772322	190.214529	981.413253	-385.020126	194.251963	1014.787950	-369.449860	270.813237	944.067350	-379.468650	373.164955	914.870180	-354.111890	367.169789	897.890076	-227.942627	137.931534	612.841524	-372.689402	146.904747	609.827654	-291.627139	71.515554	597.621380	-334.839708	216.813636	493.062110	-388.155759	296.160983	826.856279	-389.901997	268.007243	743.880196	-379.182008	200.469429	686.049400	-382.948122	290.343585	730.525806	-351.661686	299.481097	489.279416	-325.611854	-204.528980	832.561361	-224.060175	-78.138842	81.906303	-423.567657	-102.497361	80.618896	-24.308552	
